<mxfile host="app.diagrams.net" modified="2020-07-29T21:35:05.664Z" agent="5.0 (Macintosh; Intel Mac OS X 10_15_5) AppleWebKit/537.36 (KHTML, like Gecko) Chrome/83.0.4103.116 Safari/537.36" etag="_h1zzQapN4a8YIXD2jgH" version="13.5.5" type="github">
  <diagram id="NUN5SRJiNfgXja1AUhQy" name="Page-1">
    <mxGraphModel dx="988" dy="663" grid="1" gridSize="10" guides="1" tooltips="1" connect="1" arrows="1" fold="1" page="1" pageScale="1" pageWidth="827" pageHeight="1169" math="0" shadow="0">
      <root>
        <mxCell id="0" />
        <mxCell id="1" parent="0" />
        <mxCell id="7FSw7NmOO1OtjiVgoFgp-26" style="edgeStyle=orthogonalEdgeStyle;rounded=0;orthogonalLoop=1;jettySize=auto;html=1;" edge="1" parent="1" source="7FSw7NmOO1OtjiVgoFgp-2" target="7FSw7NmOO1OtjiVgoFgp-6">
          <mxGeometry relative="1" as="geometry" />
        </mxCell>
        <mxCell id="7FSw7NmOO1OtjiVgoFgp-2" value="" style="whiteSpace=wrap;html=1;aspect=fixed;" vertex="1" parent="1">
          <mxGeometry x="300" y="10" width="200" height="200" as="geometry" />
        </mxCell>
        <mxCell id="7FSw7NmOO1OtjiVgoFgp-3" value="Model" style="text;html=1;strokeColor=none;fillColor=none;align=center;verticalAlign=middle;whiteSpace=wrap;rounded=0;" vertex="1" parent="1">
          <mxGeometry x="380" y="20" width="40" height="20" as="geometry" />
        </mxCell>
        <mxCell id="7FSw7NmOO1OtjiVgoFgp-27" style="edgeStyle=orthogonalEdgeStyle;rounded=0;orthogonalLoop=1;jettySize=auto;html=1;entryX=0;entryY=0;entryDx=0;entryDy=0;" edge="1" parent="1" source="7FSw7NmOO1OtjiVgoFgp-6" target="7FSw7NmOO1OtjiVgoFgp-10">
          <mxGeometry relative="1" as="geometry" />
        </mxCell>
        <mxCell id="7FSw7NmOO1OtjiVgoFgp-6" value="" style="whiteSpace=wrap;html=1;aspect=fixed;" vertex="1" parent="1">
          <mxGeometry x="30" y="270" width="200" height="200" as="geometry" />
        </mxCell>
        <mxCell id="7FSw7NmOO1OtjiVgoFgp-7" value="View" style="text;html=1;strokeColor=none;fillColor=none;align=center;verticalAlign=middle;whiteSpace=wrap;rounded=0;" vertex="1" parent="1">
          <mxGeometry x="110" y="280" width="40" height="20" as="geometry" />
        </mxCell>
        <mxCell id="7FSw7NmOO1OtjiVgoFgp-25" style="edgeStyle=orthogonalEdgeStyle;rounded=0;orthogonalLoop=1;jettySize=auto;html=1;entryX=0.843;entryY=1.006;entryDx=0;entryDy=0;entryPerimeter=0;" edge="1" parent="1" source="7FSw7NmOO1OtjiVgoFgp-8" target="7FSw7NmOO1OtjiVgoFgp-2">
          <mxGeometry relative="1" as="geometry" />
        </mxCell>
        <mxCell id="7FSw7NmOO1OtjiVgoFgp-8" value="" style="whiteSpace=wrap;html=1;aspect=fixed;" vertex="1" parent="1">
          <mxGeometry x="570" y="270" width="200" height="200" as="geometry" />
        </mxCell>
        <mxCell id="7FSw7NmOO1OtjiVgoFgp-9" value="Controller" style="text;html=1;strokeColor=none;fillColor=none;align=center;verticalAlign=middle;whiteSpace=wrap;rounded=0;" vertex="1" parent="1">
          <mxGeometry x="650" y="280" width="40" height="20" as="geometry" />
        </mxCell>
        <mxCell id="7FSw7NmOO1OtjiVgoFgp-12" style="edgeStyle=orthogonalEdgeStyle;rounded=0;orthogonalLoop=1;jettySize=auto;html=1;entryX=0.45;entryY=1;entryDx=0;entryDy=0;entryPerimeter=0;" edge="1" parent="1" source="7FSw7NmOO1OtjiVgoFgp-10" target="7FSw7NmOO1OtjiVgoFgp-8">
          <mxGeometry relative="1" as="geometry" />
        </mxCell>
        <mxCell id="7FSw7NmOO1OtjiVgoFgp-10" value="" style="ellipse;whiteSpace=wrap;html=1;" vertex="1" parent="1">
          <mxGeometry x="340" y="530" width="120" height="80" as="geometry" />
        </mxCell>
        <mxCell id="7FSw7NmOO1OtjiVgoFgp-11" value="user" style="text;html=1;strokeColor=none;fillColor=none;align=center;verticalAlign=middle;whiteSpace=wrap;rounded=0;" vertex="1" parent="1">
          <mxGeometry x="380" y="560" width="40" height="20" as="geometry" />
        </mxCell>
        <mxCell id="7FSw7NmOO1OtjiVgoFgp-13" value="Завпрос" style="text;html=1;strokeColor=none;fillColor=none;align=center;verticalAlign=middle;whiteSpace=wrap;rounded=0;" vertex="1" parent="1">
          <mxGeometry x="570" y="580" width="40" height="20" as="geometry" />
        </mxCell>
        <mxCell id="7FSw7NmOO1OtjiVgoFgp-14" value="User" style="text;html=1;strokeColor=none;fillColor=none;align=center;verticalAlign=middle;whiteSpace=wrap;rounded=0;" vertex="1" parent="1">
          <mxGeometry x="590" y="330" width="40" height="20" as="geometry" />
        </mxCell>
        <mxCell id="7FSw7NmOO1OtjiVgoFgp-15" value="Order" style="text;html=1;strokeColor=none;fillColor=none;align=center;verticalAlign=middle;whiteSpace=wrap;rounded=0;" vertex="1" parent="1">
          <mxGeometry x="590" y="360" width="40" height="20" as="geometry" />
        </mxCell>
        <mxCell id="7FSw7NmOO1OtjiVgoFgp-16" value="Product" style="text;html=1;strokeColor=none;fillColor=none;align=center;verticalAlign=middle;whiteSpace=wrap;rounded=0;" vertex="1" parent="1">
          <mxGeometry x="600" y="390" width="40" height="20" as="geometry" />
        </mxCell>
        <mxCell id="7FSw7NmOO1OtjiVgoFgp-18" value="Product" style="text;html=1;strokeColor=none;fillColor=none;align=center;verticalAlign=middle;whiteSpace=wrap;rounded=0;" vertex="1" parent="1">
          <mxGeometry x="330" y="50" width="40" height="20" as="geometry" />
        </mxCell>
        <mxCell id="7FSw7NmOO1OtjiVgoFgp-20" value="User" style="text;html=1;strokeColor=none;fillColor=none;align=center;verticalAlign=middle;whiteSpace=wrap;rounded=0;" vertex="1" parent="1">
          <mxGeometry x="330" y="80" width="40" height="20" as="geometry" />
        </mxCell>
        <mxCell id="7FSw7NmOO1OtjiVgoFgp-21" value="User" style="text;html=1;strokeColor=none;fillColor=none;align=center;verticalAlign=middle;whiteSpace=wrap;rounded=0;" vertex="1" parent="1">
          <mxGeometry x="50" y="320" width="40" height="20" as="geometry" />
        </mxCell>
        <mxCell id="7FSw7NmOO1OtjiVgoFgp-22" value="Product" style="text;html=1;strokeColor=none;fillColor=none;align=center;verticalAlign=middle;whiteSpace=wrap;rounded=0;" vertex="1" parent="1">
          <mxGeometry x="50" y="350" width="40" height="20" as="geometry" />
        </mxCell>
        <mxCell id="7FSw7NmOO1OtjiVgoFgp-23" value="Order" style="text;html=1;strokeColor=none;fillColor=none;align=center;verticalAlign=middle;whiteSpace=wrap;rounded=0;" vertex="1" parent="1">
          <mxGeometry x="50" y="380" width="40" height="20" as="geometry" />
        </mxCell>
        <mxCell id="7FSw7NmOO1OtjiVgoFgp-24" value="main" style="text;html=1;strokeColor=none;fillColor=none;align=center;verticalAlign=middle;whiteSpace=wrap;rounded=0;" vertex="1" parent="1">
          <mxGeometry x="60" y="410" width="40" height="20" as="geometry" />
        </mxCell>
        <mxCell id="7FSw7NmOO1OtjiVgoFgp-28" value="Запрашивает данные из модели" style="text;html=1;strokeColor=none;fillColor=none;align=center;verticalAlign=middle;whiteSpace=wrap;rounded=0;" vertex="1" parent="1">
          <mxGeometry x="500" y="250" width="40" height="20" as="geometry" />
        </mxCell>
        <mxCell id="7FSw7NmOO1OtjiVgoFgp-29" value="Передает данные во view" style="text;html=1;strokeColor=none;fillColor=none;align=center;verticalAlign=middle;whiteSpace=wrap;rounded=0;" vertex="1" parent="1">
          <mxGeometry x="160" y="160" width="40" height="20" as="geometry" />
        </mxCell>
        <mxCell id="7FSw7NmOO1OtjiVgoFgp-30" value="видит" style="text;html=1;strokeColor=none;fillColor=none;align=center;verticalAlign=middle;whiteSpace=wrap;rounded=0;" vertex="1" parent="1">
          <mxGeometry x="290" y="390" width="40" height="20" as="geometry" />
        </mxCell>
      </root>
    </mxGraphModel>
  </diagram>
</mxfile>
